HIERARCHY
ROOT Hips
{
	OFFSET -0.001795 -0.223333 0.028219
	CHANNELS 6 Xposition Yposition Zposition Zrotation Yrotation Xrotation 
	JOINT LeftUpLeg
	{
		OFFSET 0.069520 -0.091406 -0.006815
		CHANNELS 3 Zrotation Yrotation Xrotation
		JOINT LeftLeg
		{
			OFFSET 0.034277 -0.375199 -0.004496
			CHANNELS 3 Zrotation Yrotation Xrotation
			JOINT LeftFoot
			{
				OFFSET -0.013596 -0.397961 -0.043693
				CHANNELS 3 Zrotation Yrotation Xrotation
				JOINT LeftToe
				{
					OFFSET 0.026358 -0.055791 0.119288
					CHANNELS 3 Zrotation Yrotation Xrotation
					End Site
					{
						OFFSET 0.000000 0.000000 0.000000
					}
				}
			}
		}
	}
	JOINT RightUpLeg
	{
		OFFSET -0.067670 -0.090522 -0.004320
		CHANNELS 3 Zrotation Yrotation Xrotation
		JOINT RightLeg
		{
			OFFSET -0.038290 -0.382569 -0.008850
			CHANNELS 3 Zrotation Yrotation Xrotation
			JOINT RightFoot
			{
				OFFSET 0.015774 -0.398415 -0.042312
				CHANNELS 3 Zrotation Yrotation Xrotation
				JOINT RightToe
				{
					OFFSET -0.025372 -0.048144 0.123348
					CHANNELS 3 Zrotation Yrotation Xrotation
					End Site
					{
						OFFSET 0.000000 0.000000 0.000000
					}
				}
			}
		}
	}
	JOINT Spine
	{
		OFFSET -0.002533 0.108963 -0.026696
		CHANNELS 3 Zrotation Yrotation Xrotation
		JOINT Spine1
		{
			OFFSET 0.005487 0.135180 0.001092
			CHANNELS 3 Zrotation Yrotation Xrotation
			JOINT Spine2
			{
				OFFSET 0.001457 0.052922 0.025425
				CHANNELS 3 Zrotation Yrotation Xrotation
				JOINT Neck
				{
					OFFSET -0.002778 0.213870 -0.042857
					CHANNELS 3 Zrotation Yrotation Xrotation
					JOINT Head
					{
						OFFSET 0.005152 0.064970 0.051349
						CHANNELS 3 Zrotation Yrotation Xrotation
						End Site
						{
							OFFSET 0.000000 0.000000 0.000000
						}
					}
				}
				JOINT LeftShoulder
				{
					OFFSET 0.078845 0.121749 -0.034090
					CHANNELS 3 Zrotation Yrotation Xrotation
					JOINT LeftArm
					{
						OFFSET 0.090977 0.030469 -0.008868
						CHANNELS 3 Zrotation Yrotation Xrotation
						JOINT LeftForeArm
						{
							OFFSET 0.259612 -0.012772 -0.027456
							CHANNELS 3 Zrotation Yrotation Xrotation
							JOINT LeftHand
							{
								OFFSET 0.249234 0.008986 -0.001171
								CHANNELS 3 Zrotation Yrotation Xrotation
								End Site
								{
									OFFSET 0.000000 0.000000 0.000000
								}
							}
						}
					}
				}
				JOINT RightShoulder
				{
					OFFSET -0.081759 0.118833 -0.038615
					CHANNELS 3 Zrotation Yrotation Xrotation
					JOINT RightArm
					{
						OFFSET -0.096012 0.032551 -0.009143
						CHANNELS 3 Zrotation Yrotation Xrotation
						JOINT RightForeArm
						{
							OFFSET -0.253742 -0.013329 -0.021401
							CHANNELS 3 Zrotation Yrotation Xrotation
							JOINT RightHand
							{
								OFFSET -0.255298 0.007772 -0.005559
								CHANNELS 3 Zrotation Yrotation Xrotation
								End Site
								{
									OFFSET 0.000000 0.000000 0.000000
								}
							}
						}
					}
				}
			}
		}
	}
}
MOTION
Frames: 5
Frame Time: 0.050000
0.400090 0.938106 0.134218 177.568489 22.649663 179.659644 0.279591 -5.215147 -19.403088 -2.755884 -5.892211 2.459245 39.693326 -29.081283 34.246548 0.000000 0.000000 0.000000 -0.100784 -7.694372 9.855494 -1.215708 -6.372726 2.706954 25.612420 -17.838836 -6.642071 0.000000 0.000000 0.000000 -6.280506 -7.056053 23.358584 -5.013024 -1.609758 -30.023313 5.847269 17.328601 31.240712 6.053608 0.348025 -41.435371 0.000000 0.000000 0.000000 0.552835 -24.328332 -93.619063 5.458043 63.076979 13.158968 -32.670130 0.163228 -2.248042 0.000000 0.000000 0.000000 18.562078 -18.891939 78.718622 -40.958430 73.549568 -42.264045 -14.359944 16.046647 -4.580272 0.000000 0.000000 0.000000 
0.405165 0.932279 0.102783 177.454413 21.212858 179.832656 -0.490783 -5.070082 -19.229765 -3.869061 -6.691030 5.013263 48.905446 -34.558448 32.067982 0.000000 0.000000 0.000000 -0.349332 -7.713002 9.095554 -2.765120 -9.202648 7.901302 27.902193 -16.979486 -7.996021 0.000000 0.000000 0.000000 -7.223424 -7.112908 23.355959 -5.195874 -1.818505 -29.721701 5.953565 17.506560 31.113902 7.209742 0.184234 -40.848503 0.000000 0.000000 0.000000 1.715157 -24.458236 -98.806709 14.598107 62.304614 19.788494 -32.752288 2.336497 -2.600167 0.000000 0.000000 0.000000 16.971242 -18.928113 83.862167 -55.178677 71.185659 -51.946891 -17.068053 13.943278 -4.740236 0.000000 0.000000 0.000000 
0.408808 0.929364 0.068770 177.337000 20.297671 178.912790 -1.160552 -4.234086 -17.719957 -5.773774 -8.056757 7.798029 56.710007 -36.339889 28.336973 0.000000 0.000000 0.000000 -1.538754 -8.224016 8.164096 -6.541074 -15.112520 16.425988 30.863904 -12.342114 -4.458479 0.000000 0.000000 0.000000 -8.749646 -7.779773 24.107079 -4.986514 -1.766674 -29.686040 6.761195 18.808950 32.183943 6.907017 -0.102708 -41.518367 0.000000 0.000000 0.000000 2.308223 -24.244948 -104.644851 22.002685 61.250019 25.700285 -31.319924 3.123597 -2.487509 0.000000 0.000000 0.000000 14.839338 -18.969850 89.615191 -68.038583 66.762125 -58.295455 -19.001311 10.871315 -4.503005 0.000000 0.000000 0.000000 
0.411469 0.929429 0.033367 177.011165 18.339148 177.651370 -2.363662 -3.116787 -15.423375 -7.405798 -9.498520 10.021726 62.539785 -37.268081 24.494469 0.000000 0.000000 0.000000 -2.678909 -8.478806 4.330258 -19.409272 -25.942259 32.708802 30.785813 -4.757749 9.420355 0.000000 0.000000 0.000000 -9.820007 -8.228822 24.567978 -5.381527 -2.180238 -28.285648 6.918600 18.538637 31.967410 7.108677 -1.392298 -40.492836 0.000000 0.000000 0.000000 3.093791 -25.524054 -108.132006 25.737214 60.583378 29.091983 -30.636839 1.700598 -2.081259 0.000000 0.000000 0.000000 11.994742 -17.146737 97.039922 -78.340922 61.219455 -61.530021 -20.693130 6.947356 -4.183181 0.000000 0.000000 0.000000 
0.413955 0.931903 -0.001090 176.843061 16.280793 176.301429 -3.877419 -1.637439 -11.311145 -6.711587 -9.345431 9.419243 66.394870 -37.282468 19.107064 0.000000 0.000000 0.000000 -4.409216 -10.165266 -0.476042 -47.224334 -33.131237 57.476269 48.444187 1.916367 27.333768 0.000000 0.000000 0.000000 -11.037371 -9.240834 25.631042 -4.121087 -1.442817 -27.636790 5.652260 18.002335 30.976267 7.527568 -2.286624 -39.691454 0.000000 0.000000 0.000000 3.154486 -25.875668 -108.598000 26.104401 60.193885 29.370060 -31.770421 1.967494 -1.964386 0.000000 0.000000 0.000000 11.008989 -17.193340 97.582357 -81.076459 60.788059 -63.225120 -21.012738 7.013379 -4.222248 0.000000 0.000000 0.000000 
